<?xml version="1.0" encoding="UTF-8" standalone="no"?>
<!DOCTYPE svg PUBLIC "-//W3C//DTD SVG 1.1//EN"
 "http://www.w3.org/Graphics/SVG/1.1/DTD/svg11.dtd">
<!-- Generated by graphviz version 2.26.3 (20100126.1600)
 -->
<!-- Title: and_gate Pages: 1 -->
<svg width="292pt" height="132pt"
 viewBox="0.00 0.00 292.00 132.00" xmlns="http://www.w3.org/2000/svg" xmlns:xlink="http://www.w3.org/1999/xlink">
<g id="graph1" class="graph" transform="scale(1 1) rotate(0) translate(4 128)">
<title>and_gate</title>
<polygon fill="white" stroke="white" points="-4,5 -4,-128 289,-128 289,5 -4,5"/>
<text text-anchor="middle" x="142" y="-9.4" font-family="Times Roman,serif" font-size="14.00">and_gate</text>
<!-- n1 -->
<g id="node1" class="node"><title>n1</title>
<polygon fill="none" stroke="black" points="54,-95.7573 54,-112.243 38.1838,-123.9 15.8162,-123.9 3.55271e-15,-112.243 0,-95.7573 15.8162,-84.1005 38.1838,-84.1005 54,-95.7573"/>
<text text-anchor="middle" x="27" y="-100.4" font-family="Times Roman,serif" font-size="14.00">a</text>
</g>
<!-- c7 -->
<g id="node4" class="node"><title>c7</title>
<polygon fill="none" stroke="black" points="90.5,-49 90.5,-101 193.5,-101 193.5,-49 90.5,-49"/>
<text text-anchor="middle" x="103.5" y="-84.4" font-family="Times Roman,serif" font-size="14.00">A</text>
<polyline fill="none" stroke="black" points="90.5,-75 116.5,-75 "/>
<text text-anchor="middle" x="103.5" y="-58.4" font-family="Times Roman,serif" font-size="14.00">B</text>
<polyline fill="none" stroke="black" points="116.5,-49 116.5,-101 "/>
<text text-anchor="middle" x="142" y="-80.4" font-family="Times Roman,serif" font-size="14.00">_1_</text>
<text text-anchor="middle" x="142" y="-62.4" font-family="Times Roman,serif" font-size="14.00">$and</text>
<polyline fill="none" stroke="black" points="167.5,-49 167.5,-101 "/>
<text text-anchor="middle" x="180.5" y="-71.4" font-family="Times Roman,serif" font-size="14.00">Y</text>
</g>
<!-- n1&#45;&gt;c7 -->
<g id="edge2" class="edge"><title>n1:e&#45;&gt;c7:p4:w</title>
<path fill="none" stroke="black" d="M54,-104C67.4054,-104 71.1228,-94.6211 79.987,-90.2247"/>
<polygon fill="black" stroke="black" points="80.9972,-93.5857 90,-88 79.4789,-86.7523 80.9972,-93.5857"/>
</g>
<!-- n2 -->
<g id="node2" class="node"><title>n2</title>
<polygon fill="none" stroke="black" points="54,-37.7573 54,-54.2427 38.1838,-65.8995 15.8162,-65.8995 3.55271e-15,-54.2427 0,-37.7573 15.8162,-26.1005 38.1838,-26.1005 54,-37.7573"/>
<text text-anchor="middle" x="27" y="-42.4" font-family="Times Roman,serif" font-size="14.00">b</text>
</g>
<!-- n2&#45;&gt;c7 -->
<g id="edge4" class="edge"><title>n2:e&#45;&gt;c7:p5:w</title>
<path fill="none" stroke="black" d="M54,-46C67.4054,-46 71.1228,-55.3789 79.987,-59.7753"/>
<polygon fill="black" stroke="black" points="79.4789,-63.2477 90,-62 80.9972,-56.4143 79.4789,-63.2477"/>
</g>
<!-- n3 -->
<g id="node3" class="node"><title>n3</title>
<polygon fill="none" stroke="black" points="284,-66.7573 284,-83.2427 268.184,-94.8995 245.816,-94.8995 230,-83.2427 230,-66.7573 245.816,-55.1005 268.184,-55.1005 284,-66.7573"/>
<text text-anchor="middle" x="257" y="-71.4" font-family="Times Roman,serif" font-size="14.00">q</text>
</g>
<!-- c7&#45;&gt;n3 -->
<g id="edge6" class="edge"><title>c7:p6:e&#45;&gt;n3:w</title>
<path fill="none" stroke="black" d="M194,-75C206,-75 211.25,-75 219.875,-75"/>
<polygon fill="black" stroke="black" points="220,-78.5001 230,-75 220,-71.5001 220,-78.5001"/>
</g>
</g>
</svg>
