<?xml version="1.0" encoding="UTF-8" standalone="no"?>
<!DOCTYPE svg PUBLIC "-//W3C//DTD SVG 1.1//EN"
 "http://www.w3.org/Graphics/SVG/1.1/DTD/svg11.dtd">
<!-- Generated by graphviz version 2.26.3 (20100126.1600)
 -->
<!-- Title: and_gate Pages: 1 -->
<svg width="312pt" height="132pt"
 viewBox="0.00 0.00 312.00 132.00" xmlns="http://www.w3.org/2000/svg" xmlns:xlink="http://www.w3.org/1999/xlink">
<g id="graph1" class="graph" transform="scale(1 1) rotate(0) translate(4 128)">
<title>and_gate</title>
<polygon fill="white" stroke="white" points="-4,5 -4,-128 309,-128 309,5 -4,5"/>
<text text-anchor="middle" x="152" y="-9.4" font-family="Times Roman,serif" font-size="14.00">and_gate</text>
<!-- n1 -->
<g id="node1" class="node"><title>n1</title>
<polygon fill="none" stroke="black" points="54,-95.7573 54,-112.243 38.1838,-123.9 15.8162,-123.9 3.55271e-15,-112.243 0,-95.7573 15.8162,-84.1005 38.1838,-84.1005 54,-95.7573"/>
<text text-anchor="middle" x="27" y="-100.4" font-family="Times Roman,serif" font-size="14.00">a</text>
</g>
<!-- c7 -->
<g id="node4" class="node"><title>c7</title>
<polygon fill="none" stroke="black" points="90,-49 90,-101 214,-101 214,-49 90,-49"/>
<text text-anchor="middle" x="103" y="-84.4" font-family="Times Roman,serif" font-size="14.00">A</text>
<polyline fill="none" stroke="black" points="90,-75 116,-75 "/>
<text text-anchor="middle" x="103" y="-58.4" font-family="Times Roman,serif" font-size="14.00">B</text>
<polyline fill="none" stroke="black" points="116,-49 116,-101 "/>
<text text-anchor="middle" x="152" y="-80.4" font-family="Times Roman,serif" font-size="14.00">_1_</text>
<text text-anchor="middle" x="152" y="-62.4" font-family="Times Roman,serif" font-size="14.00">$_AND_</text>
<polyline fill="none" stroke="black" points="188,-49 188,-101 "/>
<text text-anchor="middle" x="201" y="-71.4" font-family="Times Roman,serif" font-size="14.00">Y</text>
</g>
<!-- n1&#45;&gt;c7 -->
<g id="edge2" class="edge"><title>n1:e&#45;&gt;c7:p4:w</title>
<path fill="none" stroke="black" d="M54,-104C67.4054,-104 71.1228,-94.6211 79.987,-90.2247"/>
<polygon fill="black" stroke="black" points="80.9972,-93.5857 90,-88 79.4789,-86.7523 80.9972,-93.5857"/>
</g>
<!-- n2 -->
<g id="node2" class="node"><title>n2</title>
<polygon fill="none" stroke="black" points="54,-37.7573 54,-54.2427 38.1838,-65.8995 15.8162,-65.8995 3.55271e-15,-54.2427 0,-37.7573 15.8162,-26.1005 38.1838,-26.1005 54,-37.7573"/>
<text text-anchor="middle" x="27" y="-42.4" font-family="Times Roman,serif" font-size="14.00">b</text>
</g>
<!-- n2&#45;&gt;c7 -->
<g id="edge4" class="edge"><title>n2:e&#45;&gt;c7:p5:w</title>
<path fill="none" stroke="black" d="M54,-46C67.4054,-46 71.1228,-55.3789 79.987,-59.7753"/>
<polygon fill="black" stroke="black" points="79.4789,-63.2477 90,-62 80.9972,-56.4143 79.4789,-63.2477"/>
</g>
<!-- n3 -->
<g id="node3" class="node"><title>n3</title>
<polygon fill="none" stroke="black" points="304,-66.7573 304,-83.2427 288.184,-94.8995 265.816,-94.8995 250,-83.2427 250,-66.7573 265.816,-55.1005 288.184,-55.1005 304,-66.7573"/>
<text text-anchor="middle" x="277" y="-71.4" font-family="Times Roman,serif" font-size="14.00">q</text>
</g>
<!-- c7&#45;&gt;n3 -->
<g id="edge6" class="edge"><title>c7:p6:e&#45;&gt;n3:w</title>
<path fill="none" stroke="black" d="M214,-75C226,-75 231.25,-75 239.875,-75"/>
<polygon fill="black" stroke="black" points="240,-78.5001 250,-75 240,-71.5001 240,-78.5001"/>
</g>
</g>
</svg>
